HIERARCHY
ROOT Hips
{
	OFFSET 0.000000 0.000000 0.000000
	CHANNELS 6 Xposition Yposition Zposition Xrotation Yrotation Zrotation
	JOINT Chest
	{
		OFFSET 0.000000 0.009282 11.569106
		CHANNELS 3 Xrotation Yrotation Zrotation
		JOINT Chest2
		{
			OFFSET 0.000000 -0.016863 9.269641
			CHANNELS 3 Xrotation Yrotation Zrotation
			JOINT Chest3
			{
				OFFSET 0.000000 -0.000000 8.374491
				CHANNELS 3 Xrotation Yrotation Zrotation
				JOINT Chest4
				{
					OFFSET 0.000000 -0.000000 8.374493
					CHANNELS 3 Xrotation Yrotation Zrotation
					JOINT Neck
					{
						OFFSET 0.000000 -0.000001 12.152554
						CHANNELS 3 Xrotation Yrotation Zrotation
						JOINT Head
						{
							OFFSET 0.000000 -0.040100 7.802319
							CHANNELS 3 Xrotation Yrotation Zrotation
							End Site
							{
								OFFSET 0.000000 -0.020946 14.853096
							}
						}
					}
					JOINT RightCollar
					{
						OFFSET -2.894404 -0.000000 6.791374
						CHANNELS 3 Xrotation Yrotation Zrotation
						JOINT RightShoulder
						{
							OFFSET -13.574684 0.000000 0.000000
							CHANNELS 3 Xrotation Yrotation Zrotation
							JOINT RightElbow
							{
								OFFSET -23.923903 0.000000 0.000000
								CHANNELS 3 Xrotation Yrotation Zrotation
								JOINT RightWrist
								{
									OFFSET -19.846718 -0.012765 0.000000
									CHANNELS 3 Xrotation Yrotation Zrotation
									End Site
									{
										OFFSET -14.973145 0.000000 0.000000
									}
								}
							}
						}
					}
					JOINT LeftCollar
					{
						OFFSET 2.894404 -0.000000 6.791374
						CHANNELS 3 Xrotation Yrotation Zrotation
						JOINT LeftShoulder
						{
							OFFSET 13.574684 0.000000 0.000000
							CHANNELS 3 Xrotation Yrotation Zrotation
							JOINT LeftElbow
							{
								OFFSET 23.923903 0.000000 0.000000
								CHANNELS 3 Xrotation Yrotation Zrotation
								JOINT LeftWrist
								{
									OFFSET 19.846718 -0.012765 0.000000
									CHANNELS 3 Xrotation Yrotation Zrotation
									End Site
									{
										OFFSET 14.973145 0.000000 0.000000
									}
								}
							}
						}
					}
				}
			}
		}
	}
	JOINT RightHip
	{
		OFFSET -9.469263 -0.004642 0.045487
		CHANNELS 3 Xrotation Yrotation Zrotation
		JOINT RightKnee
		{
			OFFSET 0.000000 -0.002666 -40.478676
			CHANNELS 3 Xrotation Yrotation Zrotation
			JOINT RightAnkle
			{
				OFFSET 0.000000 -0.049110 -35.224068
				CHANNELS 3 Xrotation Yrotation Zrotation
				JOINT RightToe
				{
					OFFSET 0.000000 -12.539530 -6.151390
					CHANNELS 3 Xrotation Yrotation Zrotation
					End Site
					{
						OFFSET 0.000000 -5.044995 -1.291870
					}
				}
			}
		}
	}
	JOINT LeftHip
	{
		OFFSET 9.469263 -0.004642 0.045487
		CHANNELS 3 Xrotation Yrotation Zrotation
		JOINT LeftKnee
		{
			OFFSET 0.000000 -0.002666 -40.478676
			CHANNELS 3 Xrotation Yrotation Zrotation
			JOINT LeftAnkle
			{
				OFFSET 0.000000 -0.049110 -35.224068
				CHANNELS 3 Xrotation Yrotation Zrotation
				JOINT LeftToe
				{
					OFFSET 0.000000 -12.539530 -6.151390
					CHANNELS 3 Xrotation Yrotation Zrotation
					End Site
					{
						OFFSET 0.000000 -5.044995 -1.291870
					}
				}
			}
		}
	}
}
MOTION
Frames: 11
Frame Time: 0.016667
-14.803493 -7.399722 83.228874 2.181746 4.050620 -115.254101 5.283884 0.381000 -1.507669 2.339237 0.195915 -0.661476 2.339238 0.195916 -0.661477 1.754217 0.149472 -0.495367 14.864536 -0.641996 -0.512072 -8.584824 -0.974033 -1.173263 -7.432931 -9.466160 2.997021 22.292998 -43.302334 3.383288 63.479901 10.047042 60.502082 -50.743767 23.287766 89.480000 -8.458391 7.002433 3.570904 16.306993 44.029913 -1.046451 70.063042 15.203374 -52.406686 -16.407747 -18.263584 -66.439381 6.300195 0.029002 -12.799902 4.111874 -2.697238 -6.899237 -4.051272 2.774960 -5.090806 0.021273 -0.030816 0.083298 7.912938 4.192730 15.209863 1.100866 1.702892 12.666968 -5.578265 -4.930597 10.793877 0.050406 0.018686 -0.037082 
-14.792022 -7.399538 83.230034 2.174843 4.045069 -115.219745 5.280798 0.379058 -1.513992 2.338165 0.194296 -0.664539 2.338164 0.194296 -0.664539 1.753413 0.148267 -0.497665 14.904420 -0.649294 -0.514741 -8.510852 -0.986642 -1.180574 -7.430454 -9.464023 3.016936 22.244792 -43.330198 3.292367 63.463290 10.083317 60.495347 -50.726975 23.279257 89.474064 -8.453815 7.014478 3.596556 16.270441 44.048522 -0.999245 70.052271 15.177920 -52.404548 -16.385532 -18.263982 -66.419300 6.288055 0.026305 -12.792887 4.113086 -2.701319 -6.924764 -4.050883 2.780075 -5.073830 0.024683 -0.031802 0.083059 7.898628 4.185586 15.225304 1.098610 1.700779 12.638335 -5.567107 -4.926932 10.744997 0.054460 0.018259 -0.037137 
-14.777798 -7.398625 83.230957 2.168512 4.041580 -115.186496 5.276521 0.378166 -1.526833 2.336397 0.193326 -0.670492 2.336398 0.193326 -0.670492 1.752086 0.147561 -0.502139 14.951421 -0.663354 -0.527254 -8.423764 -1.007909 -1.208270 -7.401714 -9.465283 3.051336 22.184649 -43.349360 3.213086 63.458482 10.124640 60.496147 -50.717706 23.273286 89.467569 -8.434960 7.023117 3.638617 16.237796 44.058426 -0.965320 70.042251 15.157585 -52.408520 -16.364918 -18.263847 -66.407962 6.277523 0.019410 -12.761400 4.109730 -2.704115 -6.966430 -4.048842 2.783842 -5.104731 0.028210 -0.029626 0.080564 7.883160 4.181334 15.217595 1.096006 1.701650 12.632422 -5.555161 -4.926332 10.692241 0.056965 0.015349 -0.035627 
-14.759806 -7.399161 83.231735 2.163084 4.040515 -115.156252 5.272176 0.378390 -1.528535 2.335341 0.192492 -0.672130 2.335341 0.192492 -0.672135 1.751294 0.146940 -0.503375 15.005367 -0.678143 -0.540843 -8.323779 -1.030182 -1.238119 -7.351691 -9.460684 3.058083 22.148007 -43.352601 3.195891 63.444097 10.144299 60.497260 -50.696509 23.266823 89.465964 -8.404619 7.030922 3.659988 16.222145 44.064853 -0.955555 70.030824 15.152168 -52.413953 -16.351627 -18.265282 -66.404889 6.263657 0.015320 -12.728939 4.112150 -2.709071 -7.009097 -4.048184 2.790283 -5.134582 0.031715 -0.028762 0.079138 7.865739 4.175722 15.207490 1.098082 1.702843 12.638579 -5.544117 -4.921146 10.663391 0.058764 0.010345 -0.034468 
-14.737787 -7.398627 83.232086 2.158522 4.037892 -115.132018 5.267369 0.379936 -1.524004 2.333488 0.192484 -0.670503 2.333488 0.192484 -0.670500 1.749907 0.146925 -0.502151 15.069076 -0.694187 -0.557953 -8.205705 -1.053532 -1.274739 -7.303105 -9.454958 3.074952 22.125083 -43.361142 3.187757 63.433790 10.164080 60.495552 -50.698995 23.263471 89.470683 -8.372037 7.038137 3.665878 16.222567 44.063562 -0.961000 70.010826 15.157283 -52.416839 -16.342597 -18.266468 -66.413208 6.245845 0.010715 -12.695203 4.116128 -2.713814 -7.060063 -4.049922 2.798818 -5.110564 0.036312 -0.029119 0.078390 7.844653 4.170337 15.221669 1.099710 1.702567 12.641160 -5.532931 -4.915248 10.638509 0.061393 0.005945 -0.033290 
-14.714475 -7.399289 83.232132 2.155923 4.037160 -115.112156 5.263278 0.382184 -1.523994 2.331341 0.192253 -0.670428 2.331341 0.192253 -0.670425 1.748296 0.146749 -0.502095 15.135805 -0.697667 -0.549852 -8.081815 -1.063510 -1.260775 -7.243167 -9.441849 3.106825 22.113811 -43.366500 3.203852 63.428545 10.177147 60.495026 -50.705907 23.263172 89.473443 -8.345179 7.044020 3.688352 16.242410 44.056335 -0.984664 69.994016 15.155334 -52.421613 -16.338830 -18.266958 -66.418556 6.229944 0.000921 -12.682084 4.117696 -2.713243 -7.096407 -4.050163 2.806165 -5.093857 0.040664 -0.027696 0.076089 7.827742 4.164795 15.218338 1.096112 1.701712 12.664660 -5.520027 -4.910704 10.613640 0.064834 0.003701 -0.032707 
-14.690977 -7.400784 83.232658 2.152553 4.039706 -115.084917 5.261872 0.385910 -1.524118 2.330390 0.193049 -0.670452 2.330390 0.193048 -0.670453 1.747582 0.147347 -0.502113 15.198405 -0.704738 -0.546888 -7.965652 -1.078055 -1.257510 -7.207369 -9.434327 3.128408 22.133033 -43.355654 3.242466 63.421168 10.176179 60.497089 -50.707529 23.264487 89.469830 -8.322982 7.043975 3.702735 16.251298 44.050260 -1.004316 69.998880 15.136594 -52.425172 -16.344656 -18.268838 -66.423289 6.218310 -0.006088 -12.697199 4.117728 -2.714585 -7.107535 -4.047532 2.814808 -5.109889 0.042936 -0.026227 0.074369 7.812270 4.163576 15.213265 1.090976 1.696072 12.677687 -5.501690 -4.906557 10.586386 0.065744 0.002515 -0.032513 
-14.665453 -7.403167 83.233597 2.151355 4.044946 -115.066913 5.262668 0.389224 -1.526574 2.331091 0.194285 -0.671935 2.331091 0.194285 -0.671935 1.748106 0.148279 -0.503218 15.257106 -0.711398 -0.541894 -7.856711 -1.092571 -1.250414 -7.180150 -9.429085 3.159031 22.147127 -43.336946 3.284842 63.421844 10.158947 60.502895 -50.698462 23.274629 89.465062 -8.316134 7.046312 3.735071 16.263369 44.033219 -1.031595 69.996749 15.134466 -52.431391 -16.329796 -18.272629 -66.419785 6.204823 -0.007381 -12.697633 4.124320 -2.719320 -7.121528 -4.045634 2.824997 -5.084292 0.044523 -0.026634 0.074525 7.799148 4.160293 15.208637 1.086418 1.694509 12.697840 -5.481894 -4.903486 10.560696 0.065015 0.001260 -0.032488 
-14.639170 -7.407684 83.234383 2.147398 4.053861 -115.048430 5.263716 0.394663 -1.517463 2.332010 0.196524 -0.668347 2.332010 0.196524 -0.668345 1.748795 0.149946 -0.500518 15.313593 -0.720754 -0.546778 -7.751942 -1.108298 -1.262309 -7.156813 -9.426893 3.156510 22.147916 -43.320454 3.307866 63.427520 10.149866 60.511460 -50.689696 23.283422 89.464482 -8.298142 7.046005 3.739512 16.277075 44.012189 -1.069684 69.999890 15.135737 -52.445942 -16.320145 -18.279702 -66.416821 6.190260 -0.006322 -12.692348 4.134073 -2.725299 -7.147742 -4.046353 2.836149 -5.070228 0.046703 -0.025669 0.073214 7.782828 4.162618 15.213568 1.090217 1.689085 12.684364 -5.461815 -4.902432 10.552787 0.063205 0.001256 -0.031919 
-14.611854 -7.413625 83.234589 2.141476 4.062906 -115.018938 5.265347 0.395399 -1.533085 2.332736 0.197205 -0.675654 2.332735 0.197205 -0.675658 1.749335 0.150486 -0.505993 15.365767 -0.710452 -0.527654 -7.654888 -1.097123 -1.223251 -7.117016 -9.419544 3.203563 22.135760 -43.318221 3.306427 63.420506 10.158742 60.518174 -50.688063 23.286242 89.460616 -8.278598 7.057102 3.787459 16.283432 43.986019 -1.097063 70.007171 15.122766 -52.463527 -16.318703 -18.291906 -66.410804 6.174663 -0.004336 -12.685051 4.144876 -2.730903 -7.178487 -4.049387 2.846785 -5.085948 0.050008 -0.025542 0.074220 7.764725 4.163789 15.189709 1.094430 1.683918 12.686845 -5.442824 -4.904766 10.514276 0.064257 0.003826 -0.031976 
-14.581873 -7.420149 83.234283 2.141134 4.071558 -114.996835 5.265979 0.394711 -1.522525 2.333658 0.195742 -0.671890 2.333658 0.195742 -0.671893 1.750029 0.149374 -0.503180 15.411565 -0.701398 -0.530512 -7.569703 -1.080001 -1.224703 -7.075241 -9.414132 3.201791 22.125838 -43.319239 3.298115 63.399421 10.166171 60.526971 -50.701129 23.290559 89.467903 -8.243318 7.072917 3.779330 16.277107 43.967236 -1.106013 70.005717 15.105349 -52.474107 -16.314564 -18.294168 -66.413481 6.157759 -0.008134 -12.679289 4.156751 -2.737919 -7.199786 -4.050326 2.859620 -5.122176 0.052027 -0.023856 0.073213 7.747160 4.165210 15.167470 1.093695 1.684065 12.706583 -5.423564 -4.915795 10.530426 0.066553 0.005347 -0.030758 
